# xmcd
#
# Track frame offsets:
#	150
#	14808
#	29158
#	59813
#	79096
#	98965
#	115098
#	133537
#	144356
#	172588
#
# Disc length: 2602 seconds
#
# Revision: 2
# Processed by: cddbd v1.5.1PL2 Copyright (c) Steve Scherf et al.
# Submitted via: EasyCDDAExtractor 7.0.6.1
#
DISCID=880a280a
DTITLE=Nelu Ploiesteanu - arde-o focu', viata
DYEAR=2002
DGENRE=Ethnic
TTITLE0=mandra mea mai de demult
TTITLE1=arde-o focu', viata
TTITLE2=i-auzi cainii cum se da
TTITLE3=m-am nascut intr-un bordei
TTITLE4=lunita, lunita
TTITLE5=la Chilia-n port
TTITLE6=pe lunca Neajlovului
TTITLE7=mandra mea, sprancene multe
TTITLE8=omule, cat ai trait
TTITLE9=baiat ca Gheorghe, mai rar
EXTD=
EXTT0=
EXTT1=
EXTT2=
EXTT3=
EXTT4=
EXTT5=
EXTT6=
EXTT7=
EXTT8=
EXTT9=
PLAYORDER=
